<svg width="13" height="17" viewBox="0 0 13 17" fill="none" xmlns="http://www.w3.org/2000/svg">
<path d="M6.12947 15.873C1.58891 9.29052 0.746094 8.61496 0.746094 6.1958C0.746094 2.88208 3.43237 0.195801 6.74609 0.195801C10.0598 0.195801 12.7461 2.88208 12.7461 6.1958C12.7461 8.61496 11.9033 9.29052 7.36272 15.873C7.06475 16.3034 6.42741 16.3034 6.12947 15.873ZM6.74609 8.6958C8.12681 8.6958 9.24609 7.57652 9.24609 6.1958C9.24609 4.81508 8.12681 3.6958 6.74609 3.6958C5.36538 3.6958 4.24609 4.81508 4.24609 6.1958C4.24609 7.57652 5.36538 8.6958 6.74609 8.6958Z" fill="#E51515"/>
</svg>
