<svg width="17" height="17" viewBox="0 0 17 17" fill="none" xmlns="http://www.w3.org/2000/svg">
<path d="M16.1647 1.35514L12.9147 0.605233C12.5612 0.52364 12.1998 0.706858 12.0567 1.04058L10.5567 4.54048C10.4927 4.68999 10.4789 4.85627 10.5176 5.01426C10.5563 5.17226 10.6453 5.31339 10.7712 5.41639L12.6655 6.96626C11.5413 9.36236 9.57364 11.3571 7.12643 12.5053L5.57655 10.611C5.47355 10.4851 5.33242 10.3961 5.17442 10.3575C5.01643 10.3188 4.85015 10.3325 4.70064 10.3966L1.20074 11.8966C0.867113 12.0395 0.683769 12.4009 0.765394 12.7546L1.5153 16.0046C1.59324 16.3423 1.89446 16.5859 2.24608 16.5859C10.2488 16.5859 16.7461 10.1005 16.7461 2.08592C16.7461 1.73667 16.505 1.43364 16.1647 1.35514Z" fill="#E51515"/>
</svg>
