<svg width="12" height="17" viewBox="0 0 12 17" fill="none" xmlns="http://www.w3.org/2000/svg">
<path d="M5.38338 16.0771C0.842813 9.49462 0 8.81906 0 6.3999C0 3.08618 2.68628 0.399902 6 0.399902C9.31372 0.399902 12 3.08618 12 6.3999C12 8.81906 11.1572 9.49462 6.61662 16.0771C6.31866 16.5075 5.68131 16.5075 5.38338 16.0771ZM6 8.8999C7.38072 8.8999 8.5 7.78062 8.5 6.3999C8.5 5.01918 7.38072 3.8999 6 3.8999C4.61928 3.8999 3.5 5.01918 3.5 6.3999C3.5 7.78062 4.61928 8.8999 6 8.8999Z" fill="#E51515"/>
</svg>
