<svg width="15" height="15" viewBox="0 0 15 15" fill="none" xmlns="http://www.w3.org/2000/svg">
<path d="M7.49219 0.350098C3.747 0.350098 0.710938 3.38616 0.710938 7.13135C0.710938 10.8765 3.747 13.9126 7.49219 13.9126C11.2374 13.9126 14.2734 10.8765 14.2734 7.13135C14.2734 3.38616 11.2374 0.350098 7.49219 0.350098ZM7.49219 12.6001C4.46983 12.6001 2.02344 10.1542 2.02344 7.13135C2.02344 4.10902 4.46936 1.6626 7.49219 1.6626C10.5145 1.6626 12.9609 4.10852 12.9609 7.13135C12.9609 10.1537 10.515 12.6001 7.49219 12.6001ZM10.5121 10.3636C9.06161 7.73086 9.13806 7.86255 9.05546 7.7363C9.71901 7.3568 10.135 6.59981 10.135 5.73539C10.135 4.29977 9.30798 3.40429 7.35971 3.40429H5.20866C5.02772 3.40429 4.88053 3.55148 4.88053 3.73241V10.522C4.88053 10.7029 5.02772 10.8501 5.20866 10.8501H6.26325C6.44418 10.8501 6.59137 10.7029 6.59137 10.522V8.23431H7.46523L8.76446 10.6762C8.79239 10.7288 8.83411 10.7727 8.88514 10.8034C8.93617 10.834 8.99459 10.8502 9.05412 10.8501H10.2247C10.4746 10.8501 10.6325 10.5822 10.5121 10.3636ZM7.5177 6.69128H6.59143V4.93745H7.34002C8.22642 4.93745 8.40448 5.26921 8.40448 5.80449C8.40446 6.37633 8.08954 6.69128 7.5177 6.69128Z" fill="#FF0000"/>
</svg>
