<svg width="16" height="17" viewBox="0 0 16 17" fill="none" xmlns="http://www.w3.org/2000/svg">
<path d="M15.6969 6.14219C15.8187 6.04531 16 6.13594 16 6.28906V12.6797C16 13.5078 15.3281 14.1797 14.5 14.1797H1.5C0.671875 14.1797 0 13.5078 0 12.6797V6.29219C0 6.13594 0.178125 6.04844 0.303125 6.14531C1.00312 6.68906 1.93125 7.37969 5.11875 9.69531C5.77813 10.1766 6.89062 11.1891 8 11.1828C9.11563 11.1922 10.25 10.1578 10.8844 9.69531C14.0719 7.37969 14.9969 6.68594 15.6969 6.14219ZM8 10.1797C8.725 10.1922 9.76875 9.26719 10.2937 8.88594C14.4406 5.87656 14.7562 5.61406 15.7125 4.86406C15.8937 4.72344 16 4.50469 16 4.27344V3.67969C16 2.85156 15.3281 2.17969 14.5 2.17969H1.5C0.671875 2.17969 0 2.85156 0 3.67969V4.27344C0 4.50469 0.10625 4.72031 0.2875 4.86406C1.24375 5.61094 1.55938 5.87656 5.70625 8.88594C6.23125 9.26719 7.275 10.1922 8 10.1797Z" fill="#E51515"/>
</svg>
