<svg width="16" height="17" viewBox="0 0 16 17" fill="none" xmlns="http://www.w3.org/2000/svg">
<path d="M15.4186 1.55924L12.1686 0.809335C11.8151 0.727741 11.4537 0.91096 11.3106 1.24468L9.81064 4.74458C9.74657 4.89409 9.73284 5.06037 9.77152 5.21837C9.8102 5.37636 9.89919 5.51749 10.0251 5.62049L11.9194 7.17037C10.7952 9.56646 8.82755 11.5612 6.38033 12.7094L4.83046 10.8151C4.72746 10.6892 4.58632 10.6002 4.42833 10.5616C4.27034 10.5229 4.10406 10.5366 3.95455 10.6007L0.454644 12.1007C0.121019 12.2436 -0.0623247 12.605 0.0193003 12.9587L0.769207 16.2087C0.847144 16.5464 1.14836 16.79 1.49999 16.79C9.50271 16.79 16 10.3046 16 2.29002C16 1.94077 15.7589 1.63774 15.4186 1.55924Z" fill="#E51515"/>
</svg>
