<svg width="13" height="17" viewBox="0 0 13 17" fill="none" xmlns="http://www.w3.org/2000/svg">
<path d="M6.36336 16.4672C1.82279 9.88476 0.97998 9.2092 0.97998 6.79004C0.97998 3.47632 3.66626 0.790039 6.97998 0.790039C10.2937 0.790039 12.98 3.47632 12.98 6.79004C12.98 9.2092 12.1372 9.88476 7.59661 16.4672C7.29864 16.8977 6.66129 16.8976 6.36336 16.4672ZM6.97998 9.29004C8.3607 9.29004 9.47998 8.17076 9.47998 6.79004C9.47998 5.40932 8.3607 4.29004 6.97998 4.29004C5.59926 4.29004 4.47998 5.40932 4.47998 6.79004C4.47998 8.17076 5.59926 9.29004 6.97998 9.29004Z" fill="#E51515"/>
</svg>
