<svg width="15" height="15" viewBox="0 0 15 15" fill="none" xmlns="http://www.w3.org/2000/svg">
<path d="M7.49219 0.570312C3.747 0.570312 0.710938 3.60637 0.710938 7.35156C0.710938 11.0968 3.747 14.1328 7.49219 14.1328C11.2374 14.1328 14.2734 11.0968 14.2734 7.35156C14.2734 3.60637 11.2374 0.570312 7.49219 0.570312ZM7.49219 12.8203C4.46983 12.8203 2.02344 10.3744 2.02344 7.35156C2.02344 4.32923 4.46936 1.88281 7.49219 1.88281C10.5145 1.88281 12.9609 4.32874 12.9609 7.35156C12.9609 10.3739 10.515 12.8203 7.49219 12.8203ZM10.5121 10.5838C9.06161 7.95107 9.13806 8.08276 9.05546 7.95652C9.71901 7.57701 10.135 6.82003 10.135 5.95561C10.135 4.51998 9.30798 3.6245 7.35971 3.6245H5.20866C5.02772 3.6245 4.88053 3.77169 4.88053 3.95262V10.7422C4.88053 10.9231 5.02772 11.0703 5.20866 11.0703H6.26325C6.44418 11.0703 6.59137 10.9231 6.59137 10.7422V8.45453H7.46523L8.76446 10.8964C8.79239 10.949 8.83411 10.9929 8.88514 11.0236C8.93617 11.0542 8.99459 11.0704 9.05412 11.0703H10.2247C10.4746 11.0703 10.6325 10.8024 10.5121 10.5838ZM7.5177 6.91149H6.59143V5.15766H7.34002C8.22642 5.15766 8.40448 5.48943 8.40448 6.02471C8.40446 6.59655 8.08954 6.91149 7.5177 6.91149Z" fill="#FF0000"/>
</svg>
