<svg width="17" height="17" viewBox="0 0 17 17" fill="none" xmlns="http://www.w3.org/2000/svg">
<path d="M16.443 6.93857C16.5648 6.8417 16.7461 6.93232 16.7461 7.08545V13.4761C16.7461 14.3042 16.0742 14.9761 15.2461 14.9761H2.24609C1.41797 14.9761 0.746094 14.3042 0.746094 13.4761V7.08857C0.746094 6.93232 0.924219 6.84482 1.04922 6.9417C1.74922 7.48545 2.67734 8.17607 5.86484 10.4917C6.52422 10.9729 7.63672 11.9854 8.74609 11.9792C9.86172 11.9886 10.9961 10.9542 11.6305 10.4917C14.818 8.17607 15.743 7.48232 16.443 6.93857ZM8.74609 10.9761C9.47109 10.9886 10.5148 10.0636 11.0398 9.68232C15.1867 6.67295 15.5023 6.41045 16.4586 5.66045C16.6398 5.51982 16.7461 5.30107 16.7461 5.06982V4.47607C16.7461 3.64795 16.0742 2.97607 15.2461 2.97607H2.24609C1.41797 2.97607 0.746094 3.64795 0.746094 4.47607V5.06982C0.746094 5.30107 0.852344 5.5167 1.03359 5.66045C1.98984 6.40732 2.30547 6.67295 6.45234 9.68232C6.97734 10.0636 8.02109 10.9886 8.74609 10.9761Z" fill="#E51515"/>
</svg>
