<svg width="17" height="17" viewBox="0 0 17 17" fill="none" xmlns="http://www.w3.org/2000/svg">
<path d="M16.3986 0.949378L13.1486 0.199472C12.7951 0.117878 12.4337 0.301097 12.2906 0.634815L10.7906 4.13472C10.7266 4.28423 10.7128 4.45051 10.7515 4.6085C10.7902 4.76649 10.8792 4.90763 11.0051 5.01063L12.8993 6.5605C11.7752 8.9566 9.80753 10.9514 7.36031 12.0995L5.81044 10.2053C5.70744 10.0794 5.5663 9.99037 5.40831 9.95169C5.25032 9.91301 5.08404 9.92674 4.93453 9.99082L1.43462 11.4908C1.101 11.6338 0.917656 11.9952 0.999281 12.3488L1.74919 15.5988C1.82712 15.9365 2.12834 16.1802 2.47997 16.1802C10.4827 16.1802 16.98 9.69478 16.98 1.68016C16.98 1.33091 16.7389 1.02788 16.3986 0.949378Z" fill="#E51515"/>
</svg>
