<svg width="17" height="17" viewBox="0 0 17 17" fill="none" xmlns="http://www.w3.org/2000/svg">
<path d="M16.3986 1.11881L13.1486 0.368905C12.7951 0.287311 12.4337 0.47053 12.2906 0.804249L10.7906 4.30416C10.7266 4.45366 10.7128 4.61994 10.7515 4.77794C10.7902 4.93593 10.8792 5.07706 11.0051 5.18006L12.8993 6.72994C11.7752 9.12603 9.80753 11.1208 7.36031 12.2689L5.81044 10.3747C5.70744 10.2488 5.5663 10.1598 5.40831 10.1211C5.25032 10.0824 5.08404 10.0962 4.93453 10.1602L1.43462 11.6602C1.101 11.8032 0.917656 12.1646 0.999281 12.5182L1.74919 15.7682C1.82712 16.106 2.12834 16.3496 2.47997 16.3496C10.4827 16.3496 16.98 9.86422 16.98 1.84959C16.98 1.50034 16.7389 1.19731 16.3986 1.11881Z" fill="#E51515"/>
</svg>
