<svg width="13" height="17" viewBox="0 0 13 17" fill="none" xmlns="http://www.w3.org/2000/svg">
<path d="M6.36336 16.6371C1.82279 10.0547 0.97998 9.37912 0.97998 6.95996C0.97998 3.64624 3.66626 0.959961 6.97998 0.959961C10.2937 0.959961 12.98 3.64624 12.98 6.95996C12.98 9.37912 12.1372 10.0547 7.59661 16.6371C7.29864 17.0676 6.66129 17.0676 6.36336 16.6371ZM6.97998 9.45996C8.3607 9.45996 9.47998 8.34068 9.47998 6.95996C9.47998 5.57924 8.3607 4.45996 6.97998 4.45996C5.59926 4.45996 4.47998 5.57924 4.47998 6.95996C4.47998 8.34068 5.59926 9.45996 6.97998 9.45996Z" fill="#E51515"/>
</svg>
