<svg width="15" height="15" viewBox="0 0 15 15" fill="none" xmlns="http://www.w3.org/2000/svg">
<path d="M7.49219 0.460449C3.747 0.460449 0.710938 3.49651 0.710938 7.2417C0.710938 10.9869 3.747 14.0229 7.49219 14.0229C11.2374 14.0229 14.2734 10.9869 14.2734 7.2417C14.2734 3.49651 11.2374 0.460449 7.49219 0.460449ZM7.49219 12.7104C4.46983 12.7104 2.02344 10.2645 2.02344 7.2417C2.02344 4.21937 4.46936 1.77295 7.49219 1.77295C10.5145 1.77295 12.9609 4.21887 12.9609 7.2417C12.9609 10.2641 10.515 12.7104 7.49219 12.7104ZM10.5121 10.474C9.06161 7.84121 9.13806 7.9729 9.05546 7.84665C9.71901 7.46715 10.135 6.71016 10.135 5.84575C10.135 4.41012 9.30798 3.51464 7.35971 3.51464H5.20866C5.02772 3.51464 4.88053 3.66183 4.88053 3.84276V10.6323C4.88053 10.8133 5.02772 10.9604 5.20866 10.9604H6.26325C6.44418 10.9604 6.59137 10.8133 6.59137 10.6323V8.34466H7.46523L8.76446 10.7865C8.79239 10.8391 8.83411 10.8831 8.88514 10.9137C8.93617 10.9444 8.99459 10.9605 9.05412 10.9604H10.2247C10.4746 10.9604 10.6325 10.6925 10.5121 10.474ZM7.5177 6.80163H6.59143V5.0478H7.34002C8.22642 5.0478 8.40448 5.37956 8.40448 5.91484C8.40446 6.48668 8.08954 6.80163 7.5177 6.80163Z" fill="#FF0000"/>
</svg>
