<svg width="17" height="17" viewBox="0 0 17 17" fill="none" xmlns="http://www.w3.org/2000/svg">
<path d="M16.1447 1.74528L12.8947 0.99537C12.5412 0.913776 12.1797 1.09699 12.0367 1.43071L10.5367 4.93062C10.4726 5.08013 10.4589 5.24641 10.4976 5.4044C10.5363 5.56239 10.6253 5.70353 10.7512 5.80653L12.6454 7.3564C11.5213 9.7525 9.55362 11.7473 7.10641 12.8954L5.55653 11.0012C5.45353 10.8753 5.3124 10.7863 5.15441 10.7476C4.99641 10.7089 4.83013 10.7226 4.68062 10.7867L1.18072 12.2867C0.847093 12.4297 0.66375 12.7911 0.745375 13.1447L1.49528 16.3947C1.57322 16.7324 1.87444 16.9761 2.22606 16.9761C10.2288 16.9761 16.7261 10.4907 16.7261 2.47606C16.7261 2.12681 16.485 1.82378 16.1447 1.74528Z" fill="#E51515"/>
</svg>
