<svg width="17" height="17" viewBox="0 0 17 17" fill="none" xmlns="http://www.w3.org/2000/svg">
<path d="M16.1447 0.915198L12.8947 0.165292C12.5412 0.0836981 12.1797 0.266917 12.0367 0.600636L10.5367 4.10054C10.4726 4.25005 10.4589 4.41633 10.4976 4.57432C10.5363 4.73231 10.6253 4.87345 10.7512 4.97645L12.6454 6.52632C11.5213 8.92242 9.55362 10.9172 7.10641 12.0653L5.55653 10.1711C5.45353 10.0452 5.3124 9.95619 5.15441 9.91751C4.99641 9.87883 4.83013 9.89256 4.68062 9.95664L1.18072 11.4566C0.847093 11.5996 0.66375 11.961 0.745375 12.3146L1.49528 15.5646C1.57322 15.9024 1.87444 16.146 2.22606 16.146C10.2288 16.146 16.7261 9.6606 16.7261 1.64598C16.7261 1.29673 16.485 0.993698 16.1447 0.915198Z" fill="#E51515"/>
</svg>
