<svg width="16" height="17" viewBox="0 0 16 17" fill="none" xmlns="http://www.w3.org/2000/svg">
<path d="M15.6969 6.14268C15.8187 6.0458 16 6.13643 16 6.28955V12.6802C16 13.5083 15.3281 14.1802 14.5 14.1802H1.5C0.671875 14.1802 0 13.5083 0 12.6802V6.29268C0 6.13643 0.178125 6.04893 0.303125 6.1458C1.00312 6.68955 1.93125 7.38018 5.11875 9.6958C5.77813 10.1771 6.89062 11.1896 8 11.1833C9.11563 11.1927 10.25 10.1583 10.8844 9.6958C14.0719 7.38018 14.9969 6.68643 15.6969 6.14268ZM8 10.1802C8.725 10.1927 9.76875 9.26768 10.2937 8.88643C14.4406 5.87705 14.7562 5.61455 15.7125 4.86455C15.8937 4.72393 16 4.50518 16 4.27393V3.68018C16 2.85205 15.3281 2.18018 14.5 2.18018H1.5C0.671875 2.18018 0 2.85205 0 3.68018V4.27393C0 4.50518 0.10625 4.7208 0.2875 4.86455C1.24375 5.61143 1.55938 5.87705 5.70625 8.88643C6.23125 9.26768 7.275 10.1927 8 10.1802Z" fill="#E51515"/>
</svg>
