<svg width="12" height="17" viewBox="0 0 12 17" fill="none" xmlns="http://www.w3.org/2000/svg">
<path d="M5.38338 16.0776C0.842813 9.49511 0 8.81955 0 6.40039C0 3.08667 2.68628 0.400391 6 0.400391C9.31372 0.400391 12 3.08667 12 6.40039C12 8.81955 11.1572 9.49511 6.61662 16.0776C6.31866 16.508 5.68131 16.508 5.38338 16.0776ZM6 8.90039C7.38072 8.90039 8.5 7.78111 8.5 6.40039C8.5 5.01967 7.38072 3.90039 6 3.90039C4.61928 3.90039 3.5 5.01967 3.5 6.40039C3.5 7.78111 4.61928 8.90039 6 8.90039Z" fill="#E51515"/>
</svg>
