<svg width="17" height="17" viewBox="0 0 17 17" fill="none" xmlns="http://www.w3.org/2000/svg">
<path d="M16.3986 0.948889L13.1486 0.198983C12.7951 0.11739 12.4337 0.300608 12.2906 0.634327L10.7906 4.13423C10.7266 4.28374 10.7128 4.45002 10.7515 4.60801C10.7902 4.76601 10.8792 4.90714 11.0051 5.01014L12.8993 6.56001C11.7752 8.95611 9.80753 10.9509 7.36031 12.099L5.81044 10.2048C5.70744 10.0789 5.5663 9.98988 5.40831 9.9512C5.25032 9.91252 5.08404 9.92625 4.93453 9.99033L1.43462 11.4903C1.101 11.6333 0.917656 11.9947 0.999281 12.3483L1.74919 15.5983C1.82712 15.936 2.12834 16.1797 2.47997 16.1797C10.4827 16.1797 16.98 9.6943 16.98 1.67967C16.98 1.33042 16.7389 1.02739 16.3986 0.948889Z" fill="#E51515"/>
</svg>
