<svg width="17" height="17" viewBox="0 0 17 17" fill="none" xmlns="http://www.w3.org/2000/svg">
<path d="M16.3986 1.1193L13.1486 0.369393C12.7951 0.2878 12.4337 0.471018 12.2906 0.804737L10.7906 4.30464C10.7266 4.45415 10.7128 4.62043 10.7515 4.77842C10.7902 4.93642 10.8792 5.07755 11.0051 5.18055L12.8993 6.73042C11.7752 9.12652 9.80753 11.1213 7.36031 12.2694L5.81044 10.3752C5.70744 10.2493 5.5663 10.1603 5.40831 10.1216C5.25032 10.0829 5.08404 10.0967 4.93453 10.1607L1.43462 11.6607C1.101 11.8037 0.917656 12.1651 0.999281 12.5187L1.74919 15.7687C1.82712 16.1065 2.12834 16.3501 2.47997 16.3501C10.4827 16.3501 16.98 9.86471 16.98 1.85008C16.98 1.50083 16.7389 1.1978 16.3986 1.1193Z" fill="#E51515"/>
</svg>
