<svg width="19" height="17" viewBox="0 0 19 17" fill="none" xmlns="http://www.w3.org/2000/svg">
<path d="M16.7498 10.1823L18.2271 3.68233C18.3338 3.21302 17.9771 2.76611 17.4958 2.76611H5.22134L4.93491 1.3658C4.86353 1.01677 4.55641 0.766113 4.20012 0.766113H0.996094C0.581875 0.766113 0.246094 1.10189 0.246094 1.51611V2.01611C0.246094 2.43033 0.581875 2.76611 0.996094 2.76611H3.17994L5.37519 13.4985C4.85 13.8005 4.49609 14.3668 4.49609 15.0161C4.49609 15.9826 5.27959 16.7661 6.24609 16.7661C7.21259 16.7661 7.99609 15.9826 7.99609 15.0161C7.99609 14.5263 7.79462 14.0838 7.47034 13.7661H14.0218C13.6976 14.0838 13.4961 14.5263 13.4961 15.0161C13.4961 15.9826 14.2796 16.7661 15.2461 16.7661C16.2126 16.7661 16.9961 15.9826 16.9961 15.0161C16.9961 14.3232 16.5933 13.7245 16.0092 13.441L16.1817 12.6823C16.2883 12.213 15.9316 11.7661 15.4503 11.7661H7.06225L6.85772 10.7661H16.0185C16.3687 10.7661 16.6722 10.5238 16.7498 10.1823Z" fill="white"/>
</svg>
