<svg width="19" height="17" viewBox="0 0 19 17" fill="none" xmlns="http://www.w3.org/2000/svg">
<path d="M17.0037 10.3862L18.481 3.88619C18.5877 3.41688 18.231 2.96997 17.7497 2.96997H5.47525L5.18881 1.56966C5.11744 1.22063 4.81031 0.969971 4.45403 0.969971H1.25C0.835781 0.969971 0.5 1.30575 0.5 1.71997V2.21997C0.5 2.63419 0.835781 2.96997 1.25 2.96997H3.43384L5.62909 13.7023C5.10391 14.0043 4.75 14.5707 4.75 15.22C4.75 16.1865 5.5335 16.97 6.5 16.97C7.4665 16.97 8.25 16.1865 8.25 15.22C8.25 14.7302 8.04853 14.2876 7.72425 13.97H14.2757C13.9515 14.2876 13.75 14.7302 13.75 15.22C13.75 16.1865 14.5335 16.97 15.5 16.97C16.4665 16.97 17.25 16.1865 17.25 15.22C17.25 14.5271 16.8472 13.9283 16.2632 13.6448L16.4356 12.8862C16.5422 12.4169 16.1855 11.97 15.7042 11.97H7.31616L7.11163 10.97H16.2724C16.6226 10.97 16.9262 10.7277 17.0037 10.3862Z" fill="white"/>
</svg>
