<svg width="19" height="17" viewBox="0 0 19 17" fill="none" xmlns="http://www.w3.org/2000/svg">
<path d="M17.0037 10.3864L18.481 3.88643C18.5877 3.41712 18.231 2.97021 17.7497 2.97021H5.47525L5.18881 1.5699C5.11744 1.22087 4.81031 0.970215 4.45403 0.970215H1.25C0.835781 0.970215 0.5 1.306 0.5 1.72021V2.22021C0.5 2.63443 0.835781 2.97021 1.25 2.97021H3.43384L5.62909 13.7026C5.10391 14.0046 4.75 14.5709 4.75 15.2202C4.75 16.1867 5.5335 16.9702 6.5 16.9702C7.4665 16.9702 8.25 16.1867 8.25 15.2202C8.25 14.7304 8.04853 14.2879 7.72425 13.9702H14.2757C13.9515 14.2879 13.75 14.7304 13.75 15.2202C13.75 16.1867 14.5335 16.9702 15.5 16.9702C16.4665 16.9702 17.25 16.1867 17.25 15.2202C17.25 14.5273 16.8472 13.9286 16.2632 13.6451L16.4356 12.8864C16.5422 12.4171 16.1855 11.9702 15.7042 11.9702H7.31616L7.11163 10.9702H16.2724C16.6226 10.9702 16.9262 10.7279 17.0037 10.3864Z" fill="white"/>
</svg>
