<svg width="16" height="17" viewBox="0 0 16 17" fill="none" xmlns="http://www.w3.org/2000/svg">
<path d="M15.7812 14.8046L12.6656 11.689C12.525 11.5483 12.3344 11.4702 12.1344 11.4702H11.625C12.4875 10.3671 13 8.97959 13 7.47021C13 3.87959 10.0906 0.970215 6.5 0.970215C2.90937 0.970215 0 3.87959 0 7.47021C0 11.0608 2.90937 13.9702 6.5 13.9702C8.00937 13.9702 9.39688 13.4577 10.5 12.5952V13.1046C10.5 13.3046 10.5781 13.4952 10.7188 13.6358L13.8344 16.7515C14.1281 17.0452 14.6031 17.0452 14.8938 16.7515L15.7781 15.8671C16.0719 15.5733 16.0719 15.0983 15.7812 14.8046ZM6.5 11.4702C4.29063 11.4702 2.5 9.68271 2.5 7.47021C2.5 5.26084 4.2875 3.47021 6.5 3.47021C8.70937 3.47021 10.5 5.25771 10.5 7.47021C10.5 9.67959 8.7125 11.4702 6.5 11.4702Z" fill="white"/>
</svg>
