<svg width="16" height="17" viewBox="0 0 16 17" fill="none" xmlns="http://www.w3.org/2000/svg">
<path d="M15.7812 14.8043L12.6656 11.6887C12.525 11.5481 12.3344 11.47 12.1344 11.47H11.625C12.4875 10.3668 13 8.97935 13 7.46997C13 3.87935 10.0906 0.969971 6.5 0.969971C2.90937 0.969971 0 3.87935 0 7.46997C0 11.0606 2.90937 13.97 6.5 13.97C8.00937 13.97 9.39688 13.4575 10.5 12.595V13.1043C10.5 13.3043 10.5781 13.495 10.7188 13.6356L13.8344 16.7512C14.1281 17.045 14.6031 17.045 14.8938 16.7512L15.7781 15.8668C16.0719 15.5731 16.0719 15.0981 15.7812 14.8043ZM6.5 11.47C4.29063 11.47 2.5 9.68247 2.5 7.46997C2.5 5.2606 4.2875 3.46997 6.5 3.46997C8.70938 3.46997 10.5 5.25747 10.5 7.46997C10.5 9.67935 8.7125 11.47 6.5 11.47Z" fill="white"/>
</svg>
