<svg width="17" height="17" viewBox="0 0 17 17" fill="none" xmlns="http://www.w3.org/2000/svg">
<path d="M16.5273 14.6005L13.4117 11.4849C13.2711 11.3442 13.0805 11.2661 12.8805 11.2661H12.3711C13.2336 10.163 13.7461 8.77549 13.7461 7.26611C13.7461 3.67549 10.8367 0.766113 7.24609 0.766113C3.65547 0.766113 0.746094 3.67549 0.746094 7.26611C0.746094 10.8567 3.65547 13.7661 7.24609 13.7661C8.75547 13.7661 10.143 13.2536 11.2461 12.3911V12.9005C11.2461 13.1005 11.3242 13.2911 11.4648 13.4317L14.5805 16.5474C14.8742 16.8411 15.3492 16.8411 15.6398 16.5474L16.5242 15.663C16.818 15.3692 16.818 14.8942 16.5273 14.6005ZM7.24609 11.2661C5.03672 11.2661 3.24609 9.47861 3.24609 7.26611C3.24609 5.05674 5.03359 3.26611 7.24609 3.26611C9.45547 3.26611 11.2461 5.05361 11.2461 7.26611C11.2461 9.47549 9.45859 11.2661 7.24609 11.2661Z" fill="white"/>
</svg>
